<svg width="64" height="67" viewBox="0 0 64 67" fill="none" xmlns="http://www.w3.org/2000/svg">
<path d="M58 4.41034H42C38.6875 4.41034 36 7.1815 36 10.5971V27.0952C36 30.5108 38.6875 33.2819 42 33.2819H52V41.5309C52 46.0808 48.4125 49.78 44 49.78H43C41.3375 49.78 40 51.1591 40 52.8734V59.0601C40 60.7744 41.3375 62.1535 43 62.1535H44C55.05 62.1535 64 52.9249 64 41.5309V10.5971C64 7.1815 61.3125 4.41034 58 4.41034ZM22 4.41034H6C2.6875 4.41034 0 7.1815 0 10.5971V27.0952C0 30.5108 2.6875 33.2819 6 33.2819H16V41.5309C16 46.0808 12.4125 49.78 8 49.78H7C5.3375 49.78 4 51.1591 4 52.8734V59.0601C4 60.7744 5.3375 62.1535 7 62.1535H8C19.05 62.1535 28 52.9249 28 41.5309V10.5971C28 7.1815 25.3125 4.41034 22 4.41034Z" fill="#F8FBFF"/>
</svg>
